<svg width="10" height="10" viewBox="0 0 10 10" fill="none" xmlns="http://www.w3.org/2000/svg">
<path d="M9.85343 9.14597C9.89988 9.19242 9.93673 9.24757 9.96187 9.30826C9.98701 9.36896 9.99995 9.434 9.99995 9.4997C9.99995 9.56539 9.98701 9.63044 9.96187 9.69114C9.93673 9.75183 9.89988 9.80697 9.85343 9.85343C9.80697 9.89988 9.75183 9.93673 9.69114 9.96187C9.63044 9.98701 9.56539 9.99995 9.4997 9.99995C9.434 9.99995 9.36896 9.98701 9.30826 9.96187C9.24757 9.93673 9.19242 9.89988 9.14597 9.85343L4.99997 5.7068L0.853976 9.85343C0.760161 9.94724 0.632921 9.99995 0.500247 9.99995C0.367574 9.99995 0.240334 9.94724 0.146519 9.85343C0.0527045 9.75961 2.61532e-09 9.63237 0 9.4997C-2.61532e-09 9.36702 0.0527045 9.23978 0.146519 9.14597L4.29314 4.99997L0.146519 0.853976C0.0527045 0.760161 0 0.632921 0 0.500247C0 0.367574 0.0527045 0.240334 0.146519 0.146519C0.240334 0.0527045 0.367574 0 0.500247 0C0.632921 0 0.760161 0.0527045 0.853976 0.146519L4.99997 4.29314L9.14597 0.146519C9.23978 0.0527045 9.36702 -2.61532e-09 9.4997 0C9.63237 2.61532e-09 9.75961 0.0527045 9.85343 0.146519C9.94724 0.240334 9.99995 0.367574 9.99995 0.500247C9.99995 0.632921 9.94724 0.760161 9.85343 0.853976L5.7068 4.99997L9.85343 9.14597Z" fill="#7A7F89"/>
</svg>
